<?xml version="1.0" encoding="utf-8"?>
<!-- Generator: Adobe Illustrator 25.4.1, SVG Export Plug-In . SVG Version: 6.00 Build 0)  -->
<svg version="1.1" id="Camada_1" xmlns="http://www.w3.org/2000/svg" xmlns:xlink="http://www.w3.org/1999/xlink" x="0px" y="0px"
	 viewBox="0 0 164.39 50" style="enable-background:new 0 0 164.39 50;" xml:space="preserve">
<style type="text/css">
	.st0{fill:url(#SVGID_1_);}
	.st1{opacity:0.9;fill:#FFFFFF;enable-background:new    ;}
	.st2{opacity:0.5;fill:#FFFFFF;enable-background:new    ;}
	.st3{opacity:0.9;enable-background:new    ;}
	.st4{fill:none;}
	.st5{fill:#FFFFFF;}
</style>
<g>
	
		<linearGradient id="SVGID_1_" gradientUnits="userSpaceOnUse" x1="21.9016" y1="23.6943" x2="24.5805" y2="21.0154" gradientTransform="matrix(10.6667 0 0 -10.6667 -222.7801 264)">
		<stop  offset="0" style="stop-color:#9B8DFF"/>
		<stop  offset="0.252" style="stop-color:#7D79FD"/>
		<stop  offset="0.555" style="stop-color:#5F65FB"/>
		<stop  offset="0.815" style="stop-color:#4D58F9"/>
		<stop  offset="1" style="stop-color:#4654F9"/>
	</linearGradient>
	<path class="st0" d="M15.65,7.15H33.5c4.93,0,8.93,4,8.93,8.93v17.85c0,4.93-4,8.93-8.93,8.93H15.65c-4.93,0-8.93-4-8.93-8.93
		V16.07C6.72,11.14,10.72,7.15,15.65,7.15z"/>
	<path class="st1" d="M19.22,29.91c-0.36,0-0.7-0.14-0.95-0.39l-3.57-3.57c-0.52-0.52-0.52-1.37,0-1.89c0,0,0,0,0,0l3.57-3.57
		c0.52-0.52,1.37-0.52,1.89,0c0.52,0.52,0.52,1.37,0,1.89L17.54,25l2.62,2.62c0.52,0.52,0.52,1.37,0,1.89
		C19.92,29.77,19.58,29.91,19.22,29.91z M29.93,29.91c-0.74,0-1.34-0.6-1.34-1.34c0-0.36,0.14-0.7,0.39-0.95L31.61,25l-2.62-2.62
		c-0.52-0.52-0.52-1.37,0-1.89c0.52-0.52,1.37-0.52,1.89,0l3.57,3.57c0.52,0.52,0.52,1.37,0,1.89c0,0,0,0,0,0l-3.57,3.57
		C30.63,29.77,30.29,29.91,29.93,29.91z"/>
	<path class="st2" d="M22.79,32.59c-0.12,0-0.25-0.02-0.37-0.05c-0.71-0.2-1.12-0.94-0.92-1.66l3.57-12.5
		c0.19-0.71,0.92-1.14,1.64-0.95c0.71,0.19,1.14,0.92,0.95,1.64c0,0.02-0.01,0.03-0.01,0.05l-3.57,12.5
		C23.91,32.19,23.39,32.59,22.79,32.59z"/>
</g>
<g class="st3">
	<rect x="48.76" y="15.5" class="st4" width="115.32" height="24.85"/>
	<path class="st5" d="M50.41,15.5h7.53c5.91,0,9.41,3.51,9.41,9.76v0.03c0,6.26-3.49,9.94-9.41,9.94h-7.53V15.5z M57.45,31.81
		c3.69,0,5.69-2.24,5.69-6.51v-0.03c0-4.12-2.06-6.37-5.69-6.37h-2.91v12.91H57.45z"/>
	<path class="st5" d="M69.14,27.93v-0.01c0-4.66,2.75-7.64,7.04-7.64s6.99,2.91,6.99,7.34v1.23H73.07c0.04,2.34,1.31,3.71,3.35,3.71
		c1.64,0,2.64-0.9,2.93-1.72l0.03-0.08h3.66L83,30.89c-0.45,2.16-2.47,4.63-6.66,4.63C71.86,35.53,69.14,32.62,69.14,27.93z
		 M73.11,26.33h6.22c-0.25-2.02-1.44-3.08-3.09-3.08C74.6,23.25,73.37,24.35,73.11,26.33z"/>
	<path class="st5" d="M83.46,20.57h4.27l3.06,11.13h0.08l3.02-11.13h4.17l-5.03,14.66h-4.5L83.46,20.57z"/>
	<path class="st5" d="M97.71,29.45l-0.01-0.12h4.01l0.01,0.08c0.07,1.53,0.97,2.6,2.6,2.6c1.74,0,2.67-1.05,2.67-3.05V15.5h4.13
		v13.49c0,4.16-2.47,6.58-6.75,6.58C100.28,35.57,97.8,33.15,97.71,29.45z"/>
	<path class="st5" d="M113.66,27.9v-0.03c0-4.72,2.87-7.6,7.25-7.6c4.39,0,7.27,2.86,7.27,7.6v0.03c0,4.79-2.83,7.63-7.26,7.63
		C116.47,35.53,113.66,32.67,113.66,27.9z M124.12,27.9v-0.03c0-2.83-1.27-4.47-3.21-4.47c-1.93,0-3.19,1.64-3.19,4.47v0.03
		c0,2.87,1.24,4.5,3.21,4.5C122.88,32.4,124.12,30.76,124.12,27.9z"/>
	<path class="st5" d="M134.4,32.73h-0.08v2.5h-3.99V15.5h3.99v7.62h0.08c0.81-1.78,2.43-2.84,4.53-2.84c3.68,0,5.96,2.84,5.96,7.62
		v0.01c0,4.76-2.28,7.63-5.97,7.63C136.81,35.53,135.2,34.46,134.4,32.73z M140.83,27.9v-0.01c0-2.68-1.26-4.31-3.24-4.31
		c-1.93,0-3.27,1.67-3.27,4.31v0.01c0,2.65,1.33,4.32,3.27,4.32C139.57,32.22,140.83,30.57,140.83,27.9z"/>
	<path class="st5" d="M146.34,30.88l-0.01-0.12h3.9l0.03,0.12c0.26,1.15,1.12,1.82,2.72,1.82c1.5,0,2.42-0.59,2.42-1.53v-0.01
		c0-0.78-0.49-1.23-1.93-1.54l-2.49-0.52c-2.84-0.6-4.28-2.02-4.28-4.21v-0.01c0-2.79,2.41-4.59,6.14-4.59
		c3.9,0,6.07,2.06,6.17,4.63v0.14h-3.68l-0.01-0.11c-0.14-1.05-1-1.85-2.47-1.85c-1.38,0-2.24,0.62-2.24,1.56v0.01
		c0,0.75,0.51,1.24,1.98,1.56l2.49,0.53c3.06,0.64,4.32,1.85,4.32,4.01v0.01c0,2.87-2.64,4.76-6.41,4.76
		C148.91,35.53,146.65,33.66,146.34,30.88z"/>
</g>
<g>
</g>
<g>
</g>
<g>
</g>
<g>
</g>
<g>
</g>
</svg>
