<?xml version="1.0" encoding="utf-8"?>
<!-- Generator: Adobe Illustrator 25.4.1, SVG Export Plug-In . SVG Version: 6.00 Build 0)  -->
<svg version="1.1" id="Camada_1" xmlns="http://www.w3.org/2000/svg" xmlns:xlink="http://www.w3.org/1999/xlink" x="0px" y="0px"
	 viewBox="0 0 164.4 50" style="enable-background:new 0 0 164.4 50;" xml:space="preserve">
<style type="text/css">
	.st0{fill:url(#SVGID_1_);}
	.st1{opacity:0.9;fill:#FFFFFF;enable-background:new    ;}
	.st2{opacity:0.5;fill:#FFFFFF;enable-background:new    ;}
	.st3{opacity:0.9;enable-background:new    ;}
	.st4{fill:none;}
	.st5{fill:#4956F9;}
</style>
<g>
	
		<linearGradient id="SVGID_1_" gradientUnits="userSpaceOnUse" x1="6.495" y1="26.3061" x2="9.1739" y2="28.985" gradientTransform="matrix(10.6667 0 0 10.6667 -58.4462 -269.335)">
		<stop  offset="0" style="stop-color:#9B8DFF"/>
		<stop  offset="0.252" style="stop-color:#7D79FD"/>
		<stop  offset="0.555" style="stop-color:#5F65FB"/>
		<stop  offset="0.815" style="stop-color:#4D58F9"/>
		<stop  offset="1" style="stop-color:#4654F9"/>
	</linearGradient>
	<path class="st0" d="M15.6,7.2h17.9c4.9,0,8.9,4,8.9,8.9v17.9c0,4.9-4,8.9-8.9,8.9H15.6c-4.9,0-8.9-4-8.9-8.9V16.1
		C6.7,11.1,10.7,7.2,15.6,7.2z"/>
	<path class="st1" d="M19.2,29.9c-0.4,0-0.7-0.1-1-0.4L14.7,26c-0.5-0.5-0.5-1.4,0-1.9l0,0l3.6-3.6c0.5-0.5,1.4-0.5,1.9,0
		c0.5,0.5,0.5,1.4,0,1.9L17.5,25l2.6,2.6c0.5,0.5,0.5,1.4,0,1.9C19.9,29.8,19.6,29.9,19.2,29.9z M29.9,29.9c-0.7,0-1.3-0.6-1.3-1.3
		c0-0.4,0.1-0.7,0.4-1l2.6-2.6L29,22.4c-0.5-0.5-0.5-1.4,0-1.9c0.5-0.5,1.4-0.5,1.9,0l3.6,3.6c0.5,0.5,0.5,1.4,0,1.9l0,0l-3.6,3.6
		C30.6,29.8,30.3,29.9,29.9,29.9z"/>
	<path class="st2" d="M22.8,32.6c-0.1,0-0.2,0-0.4,0c-0.7-0.2-1.1-0.9-0.9-1.7l3.6-12.5c0.2-0.7,0.9-1.1,1.6-1
		c0.7,0.2,1.1,0.9,1,1.6c0,0,0,0,0,0l-3.6,12.5C23.9,32.2,23.4,32.6,22.8,32.6z"/>
</g>
<g class="st3">
	<rect x="48.8" y="15.5" class="st4" width="115.3" height="24.8"/>
	<path class="st5" d="M50.4,15.5h7.5c5.9,0,9.4,3.5,9.4,9.8v0c0,6.3-3.5,9.9-9.4,9.9h-7.5V15.5z M57.5,31.8c3.7,0,5.7-2.2,5.7-6.5v0
		c0-4.1-2.1-6.4-5.7-6.4h-2.9v12.9C54.5,31.8,57.5,31.8,57.5,31.8z"/>
	<path class="st5" d="M69.1,27.9L69.1,27.9c0-4.7,2.8-7.6,7-7.6s7,2.9,7,7.3v1.2H73.1c0,2.3,1.3,3.7,3.3,3.7c1.6,0,2.6-0.9,2.9-1.7
		l0-0.1H83l0,0.1c-0.4,2.2-2.5,4.6-6.7,4.6C71.9,35.5,69.1,32.6,69.1,27.9z M73.1,26.3h6.2c-0.2-2-1.4-3.1-3.1-3.1
		C74.6,23.2,73.4,24.4,73.1,26.3z"/>
	<path class="st5" d="M83.5,20.6h4.3l3.1,11.1h0.1l3-11.1h4.2l-5,14.7h-4.5L83.5,20.6z"/>
	<path class="st5" d="M97.7,29.5l0-0.1h4l0,0.1c0.1,1.5,1,2.6,2.6,2.6c1.7,0,2.7-1,2.7-3V15.5h4.1V29c0,4.2-2.5,6.6-6.8,6.6
		C100.3,35.6,97.8,33.2,97.7,29.5z"/>
	<path class="st5" d="M113.7,27.9L113.7,27.9c0-4.8,2.9-7.6,7.2-7.6c4.4,0,7.3,2.9,7.3,7.6v0c0,4.8-2.8,7.6-7.3,7.6
		C116.5,35.5,113.7,32.7,113.7,27.9z M124.1,27.9L124.1,27.9c0-2.9-1.3-4.5-3.2-4.5c-1.9,0-3.2,1.6-3.2,4.5v0c0,2.9,1.2,4.5,3.2,4.5
		C122.9,32.4,124.1,30.8,124.1,27.9z"/>
	<path class="st5" d="M134.4,32.7L134.4,32.7l-0.1,2.5h-4V15.5h4v7.6h0.1c0.8-1.8,2.4-2.8,4.5-2.8c3.7,0,6,2.8,6,7.6v0
		c0,4.8-2.3,7.6-6,7.6C136.8,35.5,135.2,34.5,134.4,32.7z M140.8,27.9L140.8,27.9c0-2.7-1.3-4.3-3.2-4.3c-1.9,0-3.3,1.7-3.3,4.3v0
		c0,2.6,1.3,4.3,3.3,4.3C139.6,32.2,140.8,30.6,140.8,27.9z"/>
	<path class="st5" d="M146.3,30.9l0-0.1h3.9l0,0.1c0.3,1.1,1.1,1.8,2.7,1.8c1.5,0,2.4-0.6,2.4-1.5v0c0-0.8-0.5-1.2-1.9-1.5l-2.5-0.5
		c-2.8-0.6-4.3-2-4.3-4.2v0c0-2.8,2.4-4.6,6.1-4.6c3.9,0,6.1,2.1,6.2,4.6v0.1h-3.7l0-0.1c-0.1-1-1-1.9-2.5-1.9
		c-1.4,0-2.2,0.6-2.2,1.6v0c0,0.8,0.5,1.2,2,1.6l2.5,0.5c3.1,0.6,4.3,1.9,4.3,4v0c0,2.9-2.6,4.8-6.4,4.8
		C148.9,35.5,146.6,33.7,146.3,30.9z"/>
</g>
</svg>
